<?xml version="1.0" standalone="no"?>
<!DOCTYPE svg PUBLIC "-//W3C//DTD SVG 20010904//EN"
 "http://www.w3.org/TR/2001/REC-SVG-20010904/DTD/svg10.dtd">
<svg version="1.0" xmlns="http://www.w3.org/2000/svg"
 width="832.000000pt" height="832.000000pt" viewBox="0 0 832.000000 832.000000"
 preserveAspectRatio="xMidYMid meet">
<metadata>
Created by potrace 1.11, written by Peter Selinger 2001-2013
</metadata>
<g transform="translate(0.000000,832.000000) scale(0.100000,-0.100000)"
fill="#000000" stroke="none">
<path d="M5239 8173 c-1 -5 -1 -11 0 -15 0 -5 -3 -8 -8 -8 -4 0 -8 -1078 -9
-2437 0 -1341 -3 -2460 -6 -2488 -12 -107 -49 -200 -123 -312 -46 -71 -168
-195 -246 -252 -60 -44 -210 -125 -285 -154 -57 -23 -186 -57 -236 -63 -23 -3
-52 -7 -65 -10 -28 -6 -247 -6 -277 0 -29 6 -92 16 -126 21 -77 11 -300 97
-368 143 -14 9 -27 17 -30 17 -16 2 -113 80 -175 141 -156 153 -244 340 -241
515 1 38 -1 69 -4 69 -3 0 -5 70 -5 155 0 85 2 155 5 155 3 0 3 26 0 58 -3 31
-3 86 0 122 3 36 3 91 0 123 -3 31 -2 57 3 57 4 0 6 4 2 9 -3 6 -5 65 -5 133
1 68 0 159 0 203 -1 44 -1 87 -1 95 0 8 0 35 0 60 0 66 0 127 1 292 1 81 -2
152 -5 158 -3 5 -3 10 2 10 4 0 8 65 8 145 0 80 -2 145 -5 145 -3 0 -5 70 -5
155 0 85 3 155 7 155 3 0 4 8 2 18 -8 28 -10 302 -2 302 3 0 4 8 2 18 -7 25
-10 302 -4 302 3 0 3 26 0 58 -3 31 -3 86 0 122 3 36 3 91 0 123 -3 31 -2 57
3 57 4 0 6 4 2 9 -3 6 -5 65 -5 133 1 68 0 159 0 203 -1 44 -1 87 -1 95 0 8 0
35 0 60 0 66 0 127 1 292 1 81 -2 152 -5 158 -3 5 -3 10 2 10 4 0 6 63 3 140
-3 77 -1 140 3 140 5 0 6 4 2 10 -5 8 -6 80 -3 195 0 11 -1 45 -2 76 l-3 55
-1053 0 -1054 0 0 -2432 0 -2433 -27 -26 c-27 -25 -27 -27 -9 -40 10 -8 16
-21 13 -29 -4 -9 0 -19 7 -23 11 -6 15 -62 19 -263 3 -140 8 -275 11 -300 13
-95 21 -140 37 -211 6 -26 12 -53 13 -60 2 -8 6 -21 9 -29 3 -8 15 -46 27 -85
11 -38 25 -79 29 -90 5 -11 15 -36 21 -55 18 -50 132 -283 146 -297 7 -7 22
-33 34 -58 12 -25 26 -45 31 -45 5 0 9 -6 9 -14 0 -8 6 -21 12 -28 7 -7 29
-36 48 -63 19 -28 39 -55 45 -61 5 -7 19 -24 30 -40 101 -142 354 -394 550
-547 83 -64 278 -198 320 -220 42 -21 87 -65 80 -77 -3 -6 -2 -10 4 -10 5 0
13 4 16 10 3 5 66 -21 143 -60 144 -73 260 -127 302 -141 14 -4 68 -24 120
-44 82 -31 264 -90 310 -100 8 -1 33 -8 55 -13 22 -6 51 -13 65 -16 14 -2 59
-11 100 -20 90 -18 140 -26 200 -33 48 -5 85 -11 85 -13 0 -5 174 -12 332 -13
167 -2 194 -5 211 -20 18 -17 20 -17 33 3 15 21 25 24 124 34 33 4 74 9 90 11
17 3 44 7 60 9 208 28 538 121 790 223 102 41 333 151 345 163 3 3 16 11 30
17 60 30 133 74 244 148 65 44 126 85 134 90 21 13 32 22 58 43 12 9 39 31 60
47 156 121 374 335 489 480 22 28 42 52 45 55 35 33 210 300 210 320 0 5 3 9
8 8 4 -1 29 2 56 6 l48 8 -31 32 -31 31 35 68 c19 37 32 67 29 67 -4 0 1 11 9
24 26 39 95 253 121 376 24 112 33 171 42 275 2 28 4 1254 4 2725 0 2301 2
2682 15 2723 l14 47 -1059 0 c-583 0 -1061 -3 -1061 -7z m-2429 -189 c0 -2
-63 -82 -141 -179 -177 -222 -171 -215 -191 -237 -10 -10 -18 -20 -18 -23 0
-3 -8 -14 -17 -24 -10 -11 -23 -26 -28 -33 -63 -81 -181 -224 -187 -226 -4 -2
-8 -10 -8 -17 0 -7 -4 -15 -8 -17 -5 -1 -74 -84 -153 -183 -79 -99 -149 -187
-156 -195 -6 -8 -40 -50 -74 -93 -46 -56 -67 -76 -78 -71 -9 4 -33 9 -53 12
-36 4 -45 16 -63 75 -1 4 -4 9 -5 12 -1 3 -3 8 -5 13 -1 4 -7 21 -14 37 -7 17
-26 64 -41 105 -16 41 -63 165 -105 275 -73 188 -97 251 -129 335 -35 92 -101
263 -132 342 -19 48 -34 89 -34 91 0 1 369 3 820 3 451 0 820 -1 820 -2z
m4317 -18 c-3 -12 -8 -32 -11 -45 -3 -13 -12 -45 -20 -70 -20 -65 -53 -178
-67 -231 -17 -60 -15 -54 -43 -150 -37 -126 -97 -333 -101 -350 -4 -15 -59
-202 -150 -515 -26 -88 -48 -164 -50 -170 -1 -5 -12 -45 -25 -88 l-23 -78 -39
3 c-21 1 -44 9 -51 17 -23 28 -117 181 -117 191 0 6 -3 10 -8 10 -4 0 -16 17
-27 38 -11 20 -24 42 -28 47 -5 6 -91 143 -192 305 -102 162 -189 302 -195
310 -38 56 -240 384 -240 390 0 5 -4 10 -8 12 -4 2 -19 21 -32 43 -13 22 -39
65 -58 95 -92 145 -107 168 -133 207 -16 24 -23 43 -17 45 6 2 377 4 825 4
l815 0 -5 -20z m-1697 -203 c23 -38 53 -84 65 -103 45 -70 113 -177 170 -270
33 -52 62 -97 65 -100 3 -3 12 -19 21 -35 9 -17 103 -167 209 -335 106 -168
200 -318 210 -335 35 -60 194 -310 199 -315 3 -3 14 -20 23 -37 14 -27 15 -35
4 -46 -43 -43 -65 -145 -47 -215 7 -23 27 -61 46 -86 l34 -45 -34 -46 c-19
-25 -35 -48 -35 -51 0 -2 -18 -29 -40 -59 -22 -30 -40 -58 -40 -64 0 -5 -4
-11 -8 -13 -5 -1 -52 -68 -107 -148 -54 -80 -105 -153 -113 -163 -8 -9 -20
-26 -26 -37 -12 -22 -247 -362 -256 -370 -3 -3 -27 -39 -55 -80 -27 -41 -83
-122 -123 -180 -40 -58 -78 -113 -85 -124 -6 -10 -17 -24 -23 -30 -6 -6 -13
-16 -15 -21 -8 -20 -74 -115 -80 -115 -3 0 -6 785 -6 1745 0 960 1 1745 2
1745 1 0 21 -30 45 -67z m-2552 -1194 l0 -1232 -499 502 -499 502 14 34 c15
34 15 140 2 180 -6 16 10 42 68 115 42 52 81 102 88 110 7 8 43 53 81 100 64
81 104 131 137 170 30 36 46 56 80 100 19 25 37 47 40 50 3 3 30 37 60 75 30
39 57 72 60 75 3 3 28 34 55 70 28 36 55 70 61 75 6 6 53 64 105 130 91 116
140 175 145 175 1 0 2 -554 2 -1231z m-1744 1054 c21 -54 42 -106 47 -115 5
-10 9 -22 9 -27 0 -5 8 -26 17 -47 9 -22 18 -43 19 -49 3 -12 161 -422 173
-450 16 -37 83 -209 97 -252 14 -40 13 -44 -5 -64 -80 -86 -73 -252 14 -327
43 -39 46 -44 35 -83 -5 -19 -12 -50 -15 -69 -3 -19 -8 -43 -11 -53 -6 -20
-52 -237 -59 -277 -2 -14 -18 -90 -35 -170 -18 -80 -34 -156 -36 -170 -5 -26
-26 -128 -30 -145 -1 -5 -7 -32 -13 -60 -6 -27 -13 -61 -16 -75 -3 -14 -8 -38
-11 -55 -2 -16 -9 -46 -14 -65 -5 -19 -12 -55 -15 -80 -4 -24 -8 -47 -10 -51
-2 -3 -7 -19 -9 -35 -7 -35 -12 -61 -20 -94 -3 -14 -8 -36 -10 -50 -2 -14 -10
-47 -16 -75 -6 -27 -14 -61 -16 -75 -2 -14 -10 -50 -16 -80 -6 -30 -12 -59
-14 -65 -22 -113 -66 -317 -73 -340 -5 -17 -9 734 -10 1783 0 996 1 1812 3
1812 2 0 20 -44 40 -97z m6034 -2280 l-3 -728 -29 85 c-16 47 -29 89 -30 95
-1 5 -4 15 -8 20 -3 6 -15 39 -26 75 -11 36 -62 187 -112 335 -51 149 -93 275
-94 280 -1 6 -4 15 -7 20 -3 6 -29 82 -59 170 l-53 160 34 54 c30 47 34 63 34
120 0 43 -6 81 -18 108 l-19 41 42 143 c23 79 48 169 56 199 8 30 23 82 33
115 32 102 55 180 56 185 1 3 7 25 14 50 7 25 14 50 15 55 2 6 13 43 25 84 13
41 24 81 26 90 2 9 11 39 19 66 8 28 34 117 58 200 l43 150 3 -722 c1 -397 1
-1049 0 -1450z m-4348 -180 c0 -3 -145 -150 -322 -325 -178 -176 -556 -551
-840 -833 -290 -288 -518 -506 -518 -497 0 10 5 33 10 52 6 19 13 51 15 70 3
19 7 45 10 58 6 26 13 58 20 87 2 11 7 31 10 45 5 25 10 49 20 112 3 17 8 35
10 38 3 4 7 25 11 45 3 21 8 47 10 59 3 11 9 41 14 66 5 25 12 56 15 70 3 14
7 36 10 50 3 14 12 57 20 95 9 39 18 81 21 95 3 14 7 34 9 45 2 11 17 85 34
165 68 325 123 586 127 610 10 49 74 356 84 395 5 22 11 54 14 70 3 17 8 41
11 55 6 26 13 61 20 95 2 11 8 40 14 65 5 25 13 60 16 79 3 19 8 37 10 41 2 3
7 29 11 56 3 27 11 58 17 69 6 11 9 22 8 25 -1 3 8 8 21 11 20 6 90 -61 556
-528 292 -295 532 -538 532 -540z m3810 541 c15 -43 29 -86 32 -94 3 -8 11
-35 19 -60 7 -25 15 -49 18 -55 3 -5 6 -14 7 -20 3 -14 263 -786 273 -810 9
-22 120 -350 126 -375 3 -8 14 -42 25 -74 11 -33 20 -65 20 -73 0 -7 5 -13 12
-13 6 0 2 -10 -9 -22 -12 -13 -64 -79 -117 -148 -113 -147 -128 -166 -141
-183 -5 -6 -30 -39 -55 -72 -25 -33 -48 -62 -51 -65 -3 -3 -43 -54 -89 -115
-47 -60 -87 -112 -90 -115 -3 -3 -18 -23 -35 -45 -16 -22 -33 -44 -37 -50 -4
-5 -20 -26 -36 -45 -15 -19 -50 -64 -78 -100 -27 -36 -54 -72 -61 -80 -6 -8
-48 -61 -92 -118 l-81 -103 -29 48 c-17 26 -35 53 -41 60 -5 7 -10 14 -10 17
0 2 -22 40 -48 83 -27 43 -75 121 -106 173 -32 52 -69 111 -81 130 -85 132
-255 413 -255 421 0 5 -4 9 -8 9 -5 0 -18 19 -31 43 -23 44 -60 104 -118 195
-19 29 -33 58 -30 65 3 7 55 84 116 172 61 88 116 168 123 179 7 10 24 35 38
55 15 20 65 92 112 161 47 69 99 145 117 170 40 56 123 178 136 198 6 9 18 25
28 36 9 11 17 23 17 27 0 4 6 14 13 21 6 8 17 21 22 30 6 10 95 140 199 290
104 150 199 287 210 305 12 18 25 31 31 29 5 -1 21 -38 35 -82z m-3752 -1571
c1 -789 4 -961 17 -1004 3 -9 -31 -79 -83 -170 -48 -85 -91 -161 -95 -169 -4
-8 -11 -22 -17 -30 -26 -40 -100 -168 -100 -174 0 -3 -16 -30 -35 -60 l-35
-54 -67 0 c-44 0 -89 -7 -127 -21 -32 -11 -64 -18 -70 -14 -6 4 -96 67 -201
141 -198 140 -227 161 -335 240 -37 27 -74 51 -83 55 -9 3 -17 11 -17 17 0 5
-4 10 -10 10 -5 0 -53 32 -107 71 -54 39 -107 77 -118 85 -11 7 -74 52 -140
99 -66 47 -121 89 -123 93 -1 4 316 323 704 707 388 385 779 773 868 862 88
89 164 162 167 162 4 1 7 -380 7 -846z m2614 -437 c40 -66 80 -131 88 -145 8
-14 17 -28 20 -31 3 -3 11 -16 19 -30 8 -14 109 -178 224 -365 116 -187 216
-351 223 -364 13 -24 6 -32 -199 -234 -117 -114 -326 -321 -465 -459 -240
-238 -254 -249 -280 -241 -39 13 -115 8 -174 -12 -27 -9 -52 -15 -53 -13 -16
15 -278 558 -270 558 10 0 186 86 232 113 23 14 49 33 121 87 41 31 169 156
197 192 45 59 65 88 65 97 0 6 4 11 8 11 13 0 89 167 107 235 24 86 26 136 27
469 1 345 -11 330 110 132z m1675 -501 c-2 -302 -7 -571 -10 -597 -20 -151
-94 -406 -159 -545 l-24 -53 -58 63 c-92 99 -287 305 -336 357 -48 51 -140
149 -233 249 -32 34 -55 66 -52 71 4 7 414 536 499 645 13 17 83 107 155 200
72 94 137 177 144 185 7 9 26 33 42 55 l30 40 3 -60 c2 -33 1 -307 -1 -610z
m-6012 -167 c22 -16 63 -44 90 -64 330 -231 730 -519 733 -526 2 -5 8 -8 13
-8 10 0 149 -100 149 -108 0 -2 -13 -32 -30 -66 -93 -189 -39 -396 135 -516
38 -26 112 -56 128 -52 4 1 8 -1 8 -5 4 -29 3 -843 -1 -843 -6 0 -191 122
-214 141 -6 5 -58 46 -116 91 -171 135 -401 370 -521 533 -24 33 -46 62 -49
65 -11 11 -80 120 -80 127 0 3 -6 14 -14 22 -18 21 -100 177 -133 254 -56 132
-113 314 -126 402 -3 17 -8 41 -11 55 -12 52 -17 111 -22 324 -6 184 -4 217 7
210 8 -4 32 -21 54 -36z m1859 -192 c70 -112 185 -236 276 -298 14 -10 45 -31
69 -48 51 -37 254 -137 291 -143 14 -3 37 -10 53 -16 49 -19 177 -46 272 -57
17 -2 77 -4 134 -5 101 -3 103 -3 80 -20 -13 -10 -31 -24 -39 -31 -8 -7 -35
-26 -60 -43 -25 -16 -144 -100 -264 -185 -120 -85 -237 -168 -260 -184 -110
-77 -272 -191 -276 -196 -3 -3 -23 -17 -46 -32 l-41 -26 -134 140 c-228 238
-230 240 -223 261 16 51 20 134 10 191 -16 85 -52 152 -113 214 -29 29 -53 56
-53 58 0 3 39 74 87 157 48 84 93 163 101 177 7 14 27 48 43 75 17 28 33 58
36 68 3 9 7 17 8 17 2 0 24 -33 49 -74z m3266 -331 c41 -44 84 -89 95 -101 11
-11 70 -74 130 -139 111 -119 160 -171 262 -278 31 -32 54 -59 52 -62 -3 -2
-27 -7 -54 -11 -28 -3 -59 -8 -70 -10 -11 -3 -36 -6 -55 -9 -19 -2 -51 -7 -70
-10 -19 -4 -45 -9 -57 -10 -13 -2 -42 -6 -65 -10 -24 -4 -55 -8 -70 -11 -16
-2 -40 -6 -55 -8 -16 -3 -46 -7 -68 -11 -23 -3 -50 -7 -60 -9 -11 -2 -40 -7
-65 -11 -25 -3 -58 -9 -75 -12 -16 -2 -39 -6 -50 -8 -37 -5 -120 -18 -140 -21
-10 -2 -37 -6 -60 -9 -22 -4 -53 -9 -70 -12 -16 -3 -41 -7 -55 -8 -14 -2 -43
-6 -65 -9 -22 -3 -49 -7 -60 -10 -11 -2 -45 -7 -75 -12 -68 -10 -74 -11 -80
-13 -34 -12 -80 -7 -95 9 -17 18 -5 31 320 352 185 183 385 381 444 439 87 87
109 104 121 95 9 -6 49 -47 90 -91z m-1782 -262 c-1 -5 60 -132 137 -284 l138
-277 -22 -51 c-22 -53 -31 -144 -17 -191 4 -14 16 -46 27 -71 l21 -46 -63
-124 c-34 -68 -66 -125 -71 -127 -4 -2 -8 -12 -8 -22 0 -10 -6 -25 -12 -32 -7
-8 -58 -104 -113 -213 -55 -110 -102 -202 -105 -205 -3 -3 -27 -49 -54 -104
l-49 -99 -65 69 c-36 38 -149 157 -252 264 -103 107 -205 213 -226 236 -22 22
-116 121 -211 220 -94 98 -185 194 -203 212 -30 32 -31 34 -13 48 14 12 509
363 586 416 11 7 44 31 75 54 32 22 86 61 122 85 36 25 130 92 209 147 129 91
175 117 169 95z m-1690 -512 c32 -32 106 -109 166 -171 l109 -113 -50 -46
c-28 -25 -86 -77 -129 -116 -42 -38 -102 -92 -132 -120 -31 -27 -66 -59 -78
-70 -12 -11 -46 -42 -76 -68 -29 -26 -57 -49 -63 -50 -7 -1 -10 121 -10 350
l-1 352 56 20 c30 12 75 37 100 55 25 19 47 35 48 35 2 1 29 -25 60 -58z
m4022 21 c0 -7 -32 -55 -87 -131 -69 -94 -165 -204 -278 -316 -122 -123 -173
-169 -270 -245 -22 -17 -48 -37 -57 -45 -18 -15 -247 -170 -283 -192 -88 -54
-340 -187 -355 -188 -3 0 -9 -3 -15 -7 -23 -14 -217 -92 -310 -124 -97 -34
-300 -91 -354 -100 -14 -3 -35 -8 -46 -11 -11 -3 -29 -7 -40 -9 -11 -1 -58 -9
-105 -18 -106 -19 -159 -23 -160 -13 -1 8 70 150 209 417 44 85 113 219 153
297 76 149 84 157 130 132 32 -17 136 -14 193 5 50 17 97 48 137 89 33 35 77
138 81 191 2 33 8 50 18 52 8 1 30 5 49 9 19 4 48 8 63 10 15 2 47 7 70 11 23
3 51 7 62 9 11 1 20 3 20 5 0 1 9 3 20 4 44 6 131 19 146 21 9 2 40 6 70 10
30 4 56 8 59 10 3 2 30 6 60 9 30 4 69 10 85 13 17 3 39 7 50 8 27 4 96 15
120 19 19 3 82 13 135 21 14 2 68 11 120 19 52 8 111 17 130 20 79 12 115 18
117 20 7 6 63 5 63 -2z m-3335 -737 c94 -98 196 -205 228 -238 31 -33 126
-132 210 -220 83 -88 167 -173 185 -190 17 -17 32 -33 32 -37 0 -12 -245 -2
-375 15 -16 2 -52 7 -80 10 -44 6 -221 39 -267 51 -29 7 -51 12 -98 23 -96 22
-338 103 -392 132 -10 5 -22 9 -27 9 -15 0 -338 150 -361 168 -5 4 60 67 200
192 92 82 166 149 199 180 9 9 56 52 106 95 49 44 101 90 114 102 l25 22 66
-68 c36 -38 142 -148 235 -246z"/>
</g>
</svg>
